<?xml version="1.0" standalone="no"?>
<!DOCTYPE svg PUBLIC "-//W3C//DTD SVG 20010904//EN"
 "http://www.w3.org/TR/2001/REC-SVG-20010904/DTD/svg10.dtd">
<svg version="1.0" xmlns="http://www.w3.org/2000/svg"
 width="350.000000pt" height="300.000000pt" viewBox="0 0 350.000000 300.000000"
 preserveAspectRatio="xMidYMid meet">

<g transform="translate(0.000000,300.000000) scale(0.100000,-0.100000)"
fill="#000000" stroke="none">
<path d="M2840 2840 c0 -7 -7 -10 -15 -6 -8 3 -15 1 -15 -4 0 -6 -5 -10 -11
-10 -20 0 -94 -83 -116 -130 -19 -40 -32 -94 -33 -140 -2 -55 -13 -119 -20
-115 -8 5 -7 -25 2 -55 3 -8 3 -12 1 -7 -8 13 -20 8 -27 -10 -3 -10 -11 -26
-18 -35 -21 -30 -1 -31 37 -3 24 19 34 33 30 45 -3 9 1 23 10 30 9 7 15 8 15
2 0 -6 -6 -12 -12 -15 -7 -2 -10 -8 -6 -12 5 -5 18 0 30 10 36 28 -57 -60
-175 -167 -59 -54 -114 -98 -121 -98 -8 0 -21 -3 -29 -6 -12 -4 -16 11 -22 83
-4 48 -18 122 -31 163 -23 75 -93 204 -108 200 -4 -1 -14 7 -22 17 -14 17 -14
16 -4 -5 6 -12 14 -20 19 -18 4 3 13 -5 21 -17 12 -20 12 -21 -3 -9 -9 8 -21
11 -27 7 -5 -3 -10 -2 -10 3 0 17 -159 39 -169 24 -4 -6 -38 -16 -76 -21 -100
-14 -104 -13 -100 21 2 15 0 26 -4 24 -6 -4 -7 -27 -2 -76 1 -13 3 -13 12 0 9
13 10 13 6 -1 -3 -9 0 -23 6 -30 7 -7 2 -5 -10 5 -13 11 -23 25 -23 33 0 8 -3
12 -7 10 -5 -3 -17 7 -27 22 -20 26 -20 26 1 8 16 -14 20 -14 20 -3 0 8 -3 15
-6 14 -3 0 -8 1 -11 2 -3 1 -12 3 -20 5 -9 1 -33 14 -54 28 -20 15 -63 36 -94
49 -53 21 -77 23 -347 28 -159 3 -243 7 -185 9 79 2 98 5 76 11 -16 5 -33 7
-37 5 -4 -3 -10 1 -12 7 -4 10 -6 10 -6 1 -1 -7 -11 -13 -23 -12 -22 0 -22 1
-3 9 18 8 17 9 -7 9 -16 1 -28 5 -28 10 0 5 -18 11 -39 15 -37 6 -40 8 -43 44
-2 20 -7 37 -13 38 -5 0 -18 4 -28 8 -9 5 -30 5 -45 1 -15 -3 -49 -10 -77 -15
-81 -13 -122 -26 -177 -55 -96 -50 -133 -77 -204 -152 -53 -55 -75 -87 -88
-125 -27 -86 -18 -253 19 -342 12 -27 13 -24 12 45 -2 275 247 503 530 487
101 -5 180 -47 293 -155 49 -47 97 -91 107 -98 13 -8 103 -14 300 -18 254 -5
284 -8 300 -24 35 -35 43 -106 41 -358 l-1 -240 26 -45 c15 -25 27 -47 27 -50
0 -6 -127 -3 -218 6 -34 3 -69 12 -76 20 -11 11 -17 11 -22 2 -5 -8 -10 -6
-15 8 -11 28 -10 54 2 29 l9 -20 -3 20 c-2 18 -12 21 -87 27 -47 3 -255 6
-462 7 -239 1 -379 5 -383 11 -3 6 -17 10 -31 10 -13 0 -32 4 -42 9 -70 39
-120 58 -115 45 3 -8 0 -14 -6 -14 -6 0 -11 5 -11 11 0 5 -5 7 -11 3 -6 -3
-15 0 -21 7 -6 10 -8 7 -6 -11 2 -15 -5 -33 -18 -46 -12 -11 -25 -40 -29 -62
-4 -25 -12 -42 -20 -42 -9 0 -15 -15 -17 -42 -2 -34 -7 -43 -20 -42 -14 1 -16
-2 -7 -17 5 -11 7 -24 4 -30 -13 -20 6 -60 51 -104 26 -27 50 -43 57 -39 7 4
9 4 5 -1 -19 -21 98 -84 227 -122 36 -10 120 -16 295 -19 l245 -4 3 -52 c2
-28 -2 -56 -7 -61 -17 -17 -13 -40 5 -33 14 5 15 4 5 -8 -11 -13 -9 -15 8 -11
12 2 27 7 34 10 6 4 -16 -19 -50 -50 l-63 -57 6 -131 c4 -73 10 -136 15 -141
5 -6 9 -25 9 -42 0 -18 5 -36 10 -39 6 -3 10 -14 10 -23 0 -26 65 -151 108
-207 73 -96 199 -181 337 -227 69 -23 76 -23 505 -23 386 0 442 2 500 18 269
74 490 283 583 551 30 86 31 99 32 241 0 114 -4 166 -18 215 -55 202 -197 382
-362 459 -27 13 -58 27 -67 32 -10 5 -27 9 -37 9 -11 0 -23 5 -27 11 -3 6 -17
8 -31 4 -16 -4 -22 -2 -18 5 3 5 5 10 3 10 -56 7 -85 14 -92 21 -6 5 -64 9
-129 9 -66 0 -137 5 -159 12 l-39 11 3 111 3 111 85 49 c167 96 294 128 495
124 103 -2 128 1 175 20 107 42 196 147 214 252 6 32 5 33 -8 15 -13 -17 -18
-18 -35 -7 -12 6 -25 12 -30 12 -12 0 -173 91 -189 107 -7 7 -20 16 -29 21
-13 8 -13 13 -3 32 11 21 10 25 -12 41 -14 10 -43 35 -66 56 -22 21 -52 46
-66 57 -14 10 -23 22 -21 27 3 4 1 10 -5 14 -5 3 -10 1 -10 -5z m-1860 -110
c8 -5 11 -10 5 -10 -5 0 -17 5 -25 10 -8 5 -10 10 -5 10 6 0 17 -5 25 -10z
m-40 -4 c0 -2 -7 -7 -16 -10 -8 -3 -12 -2 -9 4 6 10 25 14 25 6z m103 -23 c-7
-2 -21 -2 -30 0 -10 3 -4 5 12 5 17 0 24 -2 18 -5z m591 -959 c3 -8 2 -12 -4
-9 -6 3 -10 10 -10 16 0 14 7 11 14 -7z m1231 -483 c47 -23 107 -63 130 -86
44 -44 115 -164 115 -195 0 -9 5 -21 11 -27 14 -14 14 -222 0 -236 -6 -6 -11
-20 -11 -32 0 -34 -50 -124 -94 -170 -38 -39 -146 -115 -165 -115 -4 0 -23 -8
-41 -17 -63 -31 -173 -41 -345 -32 -212 11 -217 13 -267 67 -124 134 -195 202
-210 202 -9 0 -20 5 -23 10 -8 13 -200 13 -224 1 -12 -7 -26 -4 -48 10 -47 30
-53 72 -53 379 l0 271 588 -3 587 -3 50 -24z m-1535 -85 c0 -2 -8 -10 -17 -17
-16 -13 -17 -12 -4 4 13 16 21 21 21 13z"/>
<path d="M2560 2284 c0 -8 5 -12 10 -9 6 3 10 10 10 16 0 5 -4 9 -10 9 -5 0
-10 -7 -10 -16z"/>
<path d="M355 1590 c3 -5 8 -10 11 -10 2 0 4 5 4 10 0 6 -5 10 -11 10 -5 0 -7
-4 -4 -10z"/>
<path d="M1120 965 c-13 -14 -27 -25 -32 -25 -5 0 -26 -15 -46 -34 -20 -19
-50 -45 -67 -57 -16 -13 -48 -40 -70 -60 -22 -20 -56 -49 -75 -65 -19 -15 -51
-43 -71 -61 -32 -30 -37 -32 -49 -18 -7 9 -21 13 -31 10 -9 -3 -20 -1 -24 4
-3 7 0 8 9 5 9 -3 16 -2 16 3 0 6 -18 16 -40 23 -22 7 -40 16 -40 21 0 4 -12
10 -26 13 -14 4 -46 27 -71 51 -25 25 -49 45 -54 45 -29 0 -129 -75 -129 -97
0 -7 -4 -13 -9 -13 -13 0 -43 -67 -61 -135 -28 -110 10 -246 89 -318 74 -67
114 -82 221 -82 84 0 102 3 152 28 115 56 183 167 194 315 3 43 12 98 20 123
18 56 84 165 165 271 61 80 70 97 29 53z"/>
</g>
</svg>
